HIERARCHY
ROOT Hips
{
	OFFSET 0.000000 121.760803 0.000000
	CHANNELS 6 Xposition Yposition Zposition Xrotation Yrotation Zrotation 
	JOINT Spine
	{
		OFFSET 0.072000 7.257294 -0.789700
		CHANNELS 3 Xrotation Yrotation Zrotation
		JOINT Spine1
		{
			OFFSET 0.000000 12.508769 -0.658067
			CHANNELS 3 Xrotation Yrotation Zrotation
			JOINT Spine1_split
			{
				OFFSET 0.000000 12.508769 -0.658067
				CHANNELS 3 Xrotation Yrotation Zrotation
				JOINT Spine2
				{
					OFFSET 0.000000 12.508769 -0.658067
					CHANNELS 3 Xrotation Yrotation Zrotation
					JOINT Neck
					{
						OFFSET 0.000000 14.033295 7.520400
						CHANNELS 3 Xrotation Yrotation Zrotation
						JOINT Head
						{
							OFFSET 0.000000 8.198502 5.703100
							CHANNELS 3 Xrotation Yrotation Zrotation
							JOINT HeadTop_End
							{
								OFFSET 0.000000 17.760803 13.332701
								CHANNELS 3 Xrotation Yrotation Zrotation
								End Site
								{
									OFFSET 0.000000 0.000000 0.000000
								}
							}
						}
					}
					JOINT LeftShoulder
					{
						OFFSET 6.292450 5.785301 -0.669000
						CHANNELS 3 Xrotation Yrotation Zrotation
						JOINT LeftShoulder_split
						{
							OFFSET 6.292450 5.785301 -0.669000
							CHANNELS 3 Xrotation Yrotation Zrotation
							JOINT LeftArm
							{
								OFFSET 13.907140 -6.093903 1.965100
								CHANNELS 3 Xrotation Yrotation Zrotation
								JOINT LeftForeArm
								{
									OFFSET 34.140198 0.000000 0.000000
									CHANNELS 3 Xrotation Yrotation Zrotation
									JOINT LeftHand
									{
										OFFSET 40.960209 0.000000 0.000000
										CHANNELS 3 Xrotation Yrotation Zrotation
										JOINT LeftHandThumb1
										{
											OFFSET 10.006996 -7.170425 9.573125
											CHANNELS 3 Xrotation Yrotation Zrotation
											JOINT LeftHandThumb2
											{
												OFFSET 1.835007 -1.059448 1.059443
												CHANNELS 3 Xrotation Yrotation Zrotation
												JOINT LeftHandThumb3
												{
													OFFSET 2.112267 -1.219513 1.219518
													CHANNELS 3 Xrotation Yrotation Zrotation
													JOINT LeftHandThumb4
													{
														OFFSET 4.843811 -2.796570 2.796576
														CHANNELS 3 Xrotation Yrotation Zrotation
														End Site
														{
															OFFSET 0.000000 0.000000 0.000000
														}
													}
												}
											}
										}
										JOINT LeftHandIndex1
										{
											OFFSET 18.389847 -0.922348 4.596882
											CHANNELS 3 Xrotation Yrotation Zrotation
											JOINT LeftHandIndex2
											{
												OFFSET 4.711273 0.000000 0.000000
												CHANNELS 3 Xrotation Yrotation Zrotation
												JOINT LeftHandIndex3
												{
													OFFSET 2.886131 0.000000 0.000000
													CHANNELS 3 Xrotation Yrotation Zrotation
													JOINT LeftHandIndex4
													{
														OFFSET 6.145912 0.000000 0.000000
														CHANNELS 3 Xrotation Yrotation Zrotation
														End Site
														{
															OFFSET 0.000000 0.000000 0.000000
														}
													}
												}
											}
										}
										JOINT LeftHandMiddle1
										{
											OFFSET 18.013008 0.000000 0.000000
											CHANNELS 3 Xrotation Yrotation Zrotation
											JOINT LeftHandMiddle2
											{
												OFFSET 4.946693 0.000000 0.000000
												CHANNELS 3 Xrotation Yrotation Zrotation
												JOINT LeftHandMiddle3
												{
													OFFSET 3.342232 0.000000 0.000000
													CHANNELS 3 Xrotation Yrotation Zrotation
													JOINT LeftHandMiddle4
													{
														OFFSET 4.461754 0.000000 0.000000
														CHANNELS 3 Xrotation Yrotation Zrotation
														End Site
														{
															OFFSET 0.000000 0.000000 0.000000
														}
													}
												}
											}
										}
										JOINT LeftHandRing1
										{
											OFFSET 15.849892 -0.102921 -4.126150
											CHANNELS 3 Xrotation Yrotation Zrotation
											JOINT LeftHandRing2
											{
												OFFSET 3.527054 0.000000 0.000000
												CHANNELS 3 Xrotation Yrotation Zrotation
												JOINT LeftHandRing3
												{
													OFFSET 2.961098 0.000000 0.000000
													CHANNELS 3 Xrotation Yrotation Zrotation
													JOINT LeftHandRing4
													{
														OFFSET 4.927200 0.000000 0.000000
														CHANNELS 3 Xrotation Yrotation Zrotation
														End Site
														{
															OFFSET 0.000000 0.000000 0.000000
														}
													}
												}
											}
										}
										JOINT LeftHandPinky1
										{
											OFFSET 12.791824 -0.832031 -6.799156
											CHANNELS 3 Xrotation Yrotation Zrotation
											JOINT LeftHandPinky2
											{
												OFFSET 3.327133 0.000000 0.000000
												CHANNELS 3 Xrotation Yrotation Zrotation
												JOINT LeftHandPinky3
												{
													OFFSET 3.014900 0.000000 0.000000
													CHANNELS 3 Xrotation Yrotation Zrotation
													JOINT LeftHandPinky4
													{
														OFFSET 5.847786 0.000000 0.000000
														CHANNELS 3 Xrotation Yrotation Zrotation
														End Site
														{
															OFFSET 0.000000 0.000000 0.000000
														}
													}
												}
											}
										}
									}
								}
							}
						}
					}
					JOINT RightShoulder
					{
						OFFSET -6.292450 5.785301 -0.669000
						CHANNELS 3 Xrotation Yrotation Zrotation
						JOINT RightShoulder_split
						{
							OFFSET -6.292450 5.785301 -0.669000
							CHANNELS 3 Xrotation Yrotation Zrotation
							JOINT RightArm
							{
								OFFSET -13.907140 -6.093903 1.965100
								CHANNELS 3 Xrotation Yrotation Zrotation
								JOINT RightForeArm
								{
									OFFSET -34.140198 0.000000 0.000000
									CHANNELS 3 Xrotation Yrotation Zrotation
									JOINT RightHand
									{
										OFFSET -40.960209 0.000000 0.000000
										CHANNELS 3 Xrotation Yrotation Zrotation
										JOINT RightHandThumb1
										{
											OFFSET -10.007050 -7.170456 9.573117
											CHANNELS 3 Xrotation Yrotation Zrotation
											JOINT RightHandThumb2
											{
												OFFSET -1.835007 -1.059448 1.059443
												CHANNELS 3 Xrotation Yrotation Zrotation
												JOINT RightHandThumb3
												{
													OFFSET -2.112267 -1.219513 1.219518
													CHANNELS 3 Xrotation Yrotation Zrotation
													JOINT RightHandThumb4
													{
														OFFSET -4.843834 -2.796585 2.796590
														CHANNELS 3 Xrotation Yrotation Zrotation
														End Site
														{
															OFFSET 0.000000 0.000000 0.000000
														}
													}
												}
											}
										}
										JOINT RightHandIndex1
										{
											OFFSET -18.389870 -0.922424 4.596786
											CHANNELS 3 Xrotation Yrotation Zrotation
											JOINT RightHandIndex2
											{
												OFFSET -4.711273 0.000000 0.000000
												CHANNELS 3 Xrotation Yrotation Zrotation
												JOINT RightHandIndex3
												{
													OFFSET -2.886131 0.000000 0.000000
													CHANNELS 3 Xrotation Yrotation Zrotation
													JOINT RightHandIndex4
													{
														OFFSET -6.145920 0.000000 0.000000
														CHANNELS 3 Xrotation Yrotation Zrotation
														End Site
														{
															OFFSET 0.000000 0.000000 0.000000
														}
													}
												}
											}
										}
										JOINT RightHandMiddle1
										{
											OFFSET -18.013008 0.000000 0.000000
											CHANNELS 3 Xrotation Yrotation Zrotation
											JOINT RightHandMiddle2
											{
												OFFSET -4.946693 0.000000 0.000000
												CHANNELS 3 Xrotation Yrotation Zrotation
												JOINT RightHandMiddle3
												{
													OFFSET -3.342232 0.000000 0.000000
													CHANNELS 3 Xrotation Yrotation Zrotation
													JOINT RightHandMiddle4
													{
														OFFSET -4.461754 0.000000 0.000000
														CHANNELS 3 Xrotation Yrotation Zrotation
														End Site
														{
															OFFSET 0.000000 0.000000 0.000000
														}
													}
												}
											}
										}
										JOINT RightHandRing1
										{
											OFFSET -15.849876 -0.102936 -4.126237
											CHANNELS 3 Xrotation Yrotation Zrotation
											JOINT RightHandRing2
											{
												OFFSET -3.527054 0.000000 0.000000
												CHANNELS 3 Xrotation Yrotation Zrotation
												JOINT RightHandRing3
												{
													OFFSET -2.961098 0.000000 0.000000
													CHANNELS 3 Xrotation Yrotation Zrotation
													JOINT RightHandRing4
													{
														OFFSET -4.927200 0.000000 0.000000
														CHANNELS 3 Xrotation Yrotation Zrotation
														End Site
														{
															OFFSET 0.000000 0.000000 0.000000
														}
													}
												}
											}
										}
										JOINT RightHandPinky1
										{
											OFFSET -12.791786 -0.832077 -6.799222
											CHANNELS 3 Xrotation Yrotation Zrotation
											JOINT RightHandPinky2
											{
												OFFSET -3.327133 0.000000 0.000000
												CHANNELS 3 Xrotation Yrotation Zrotation
												JOINT RightHandPinky3
												{
													OFFSET -3.014900 0.000000 0.000000
													CHANNELS 3 Xrotation Yrotation Zrotation
													JOINT RightHandPinky4
													{
														OFFSET -5.847786 0.000000 0.000000
														CHANNELS 3 Xrotation Yrotation Zrotation
														End Site
														{
															OFFSET 0.000000 0.000000 0.000000
														}
													}
												}
											}
										}
									}
								}
							}
						}
					}
				}
			}
		}
	}
	JOINT LeftUpLeg
	{
		OFFSET 13.026900 -6.336304 -1.092800
		CHANNELS 3 Xrotation Yrotation Zrotation
		JOINT LeftLeg
		{
			OFFSET 0.524474 -46.096886 9.782700
			CHANNELS 3 Xrotation Yrotation Zrotation
			JOINT LeftFoot
			{
				OFFSET -0.524474 -53.427422 -12.948200
				CHANNELS 3 Xrotation Yrotation Zrotation
				JOINT LeftToeBase
				{
					OFFSET 0.192200 -14.009700 16.364100
					CHANNELS 3 Xrotation Yrotation Zrotation
					JOINT LeftToe_End
					{
						OFFSET -1.784700 -0.561700 9.474800
						CHANNELS 3 Xrotation Yrotation Zrotation
						End Site
						{
							OFFSET 0.000000 0.000000 0.000000
						}
					}
				}
			}
		}
	}
	JOINT RightUpLeg
	{
		OFFSET -12.883000 -6.336304 -1.092800
		CHANNELS 3 Xrotation Yrotation Zrotation
		JOINT RightLeg
		{
			OFFSET -0.524587 -46.096825 9.782800
			CHANNELS 3 Xrotation Yrotation Zrotation
			JOINT RightFoot
			{
				OFFSET 0.524587 -53.427383 -12.948300
				CHANNELS 3 Xrotation Yrotation Zrotation
				JOINT RightToeBase
				{
					OFFSET -0.192200 -14.009700 16.364100
					CHANNELS 3 Xrotation Yrotation Zrotation
					JOINT RightToe_End
					{
						OFFSET 1.784700 -0.561700 9.474800
						CHANNELS 3 Xrotation Yrotation Zrotation
						End Site
						{
							OFFSET 0.000000 0.000000 0.000000
						}
					}
				}
			}
		}
	}
}
MOTION
Frames: 4
Frame Time: 0.016667
-0.075189 118.457314 0.955768 -0.317007 -0.850764 0.600548 0.600129 0.532644 0.400733 0.948881 0.543752 -0.036076 0.000000 0.000000 0.000000 0.949055 0.535715 -0.036774 1.759489 -1.272664 -0.666066 -4.887636 -8.012346 2.592187 -0.000000 0.000000 -0.000000 0.691657 -2.499306 -11.191563 0.000000 0.000000 0.000000 5.273948 -17.247124 -62.895271 -0.000001 -21.850202 0.000000 -1.967794 -14.998026 7.080644 -0.666095 2.158568 4.837379 11.853350 25.414287 17.057499 -13.811971 3.541896 9.030641 -0.000000 -0.000001 0.000001 0.021822 -0.966727 -7.590971 0.267896 1.752966 -17.376527 0.057693 0.821048 -8.038817 0.000001 0.000000 -0.000002 -0.077453 2.661813 -15.698688 0.268781 1.755778 -17.405217 0.300514 1.853950 -18.413113 0.000003 -0.000002 -0.000002 0.137974 3.644571 -21.134834 0.386567 2.094658 -20.910457 0.283138 1.800882 -17.867573 0.000002 -0.000002 -0.000002 0.949915 5.544495 -27.129281 0.268793 1.755844 -17.405876 0.241896 1.667670 -16.505526 -0.000002 0.000001 0.000003 0.450398 7.851260 13.847200 0.000000 0.000000 0.000000 5.786526 9.805976 61.054918 -0.000007 23.253208 0.000020 -0.662968 7.830452 -2.975887 -1.664516 -0.169097 -4.216945 12.708025 -29.838177 -16.127689 -15.551979 -3.555862 -12.703324 -0.000001 -0.000000 -0.000002 0.037628 1.264478 6.828386 0.213859 -1.396491 17.412924 0.046092 -0.654324 8.059125 0.000002 0.000001 0.000001 -0.135878 -2.206373 14.998783 0.214474 -1.398411 17.437692 0.239791 -1.476594 18.447088 0.000001 -0.000001 -0.000002 0.031305 -3.078191 20.463791 0.308446 -1.668282 20.948532 0.225824 -1.434047 17.897107 0.000004 0.000001 -0.000001 0.775416 -4.872493 26.474296 0.214440 -1.398284 17.436013 0.192918 -1.327914 16.532283 0.000000 0.000001 -0.000000 -6.937141 13.702088 7.346487 10.372075 -9.718517 0.327644 -4.136016 0.024010 -6.118333 -0.641578 0.000002 -0.000001 -0.000000 0.000000 0.000000 -5.819469 -10.166491 -11.875580 8.888653 6.211730 2.454502 -3.875300 -0.393293 7.316387 -0.000038 0.000000 0.000003 0.000000 -0.000000 -0.000000 
-0.076242 118.460922 0.995458 -0.317011 -0.870160 0.599687 0.600122 0.532506 0.390680 0.948880 0.543752 -0.041389 0.000000 0.000000 0.000000 0.949055 0.535716 -0.036774 1.770465 -1.244366 -0.642450 -4.885036 -7.837789 2.577702 -0.000000 -0.000000 0.000000 0.691600 -2.499366 -11.192655 0.000000 0.000000 0.000000 5.373535 -17.224132 -62.870156 0.000006 -21.977797 0.000001 -2.049703 -15.016724 7.242960 -0.708379 2.148816 4.824292 11.885547 25.397643 16.959742 -13.809141 3.410567 9.038937 0.000000 0.000003 0.000002 0.004564 -0.960441 -7.844294 0.274106 1.772691 -17.578465 0.059502 0.833684 -8.163424 -0.000002 -0.000002 0.000001 -0.083327 2.660503 -15.925187 0.276578 1.780493 -17.658324 0.306059 1.870498 -18.583541 -0.000002 -0.000000 -0.000002 0.130350 3.636587 -21.401541 0.396281 2.119881 -21.174514 0.286955 1.812743 -17.989345 0.000002 0.000001 0.000000 0.949952 5.539176 -27.389806 0.277956 1.784789 -17.702481 0.249380 1.692679 -16.760480 0.000003 0.000001 0.000001 0.452104 7.851160 13.834701 0.000000 0.000000 0.000000 5.909142 9.840614 61.120214 -0.000000 23.315450 0.000008 -0.695387 7.878863 -3.018682 -1.689571 -0.129788 -4.285256 12.722643 -29.827330 -15.983447 -15.499911 -3.442702 -12.729436 0.000000 -0.000001 0.000001 0.037482 1.312012 6.928892 0.220918 -1.418769 17.699880 0.047299 -0.662770 8.163866 -0.000002 -0.000000 -0.000001 -0.145121 -2.185772 15.152136 0.220044 -1.416034 17.664792 0.241620 -1.482052 18.517862 -0.000000 0.000003 0.000005 0.022663 -3.061567 20.607560 0.316094 -1.688121 21.209600 0.227102 -1.437977 17.947992 0.000003 -0.000002 -0.000003 0.769646 -4.857941 26.616680 0.219022 -1.412800 17.623133 0.194803 -1.334212 16.613044 -0.000003 -0.000002 0.000000 -6.903244 13.711211 7.346795 10.352197 -9.719447 0.327284 -4.148729 0.042165 -6.120486 -0.645829 0.000003 0.000002 0.000000 -0.000000 -0.000000 -5.790924 -10.159602 -11.874263 8.864266 6.211849 2.448315 -3.879553 -0.393376 7.327889 -0.000000 0.000000 0.000001 0.000000 -0.000000 -0.000000 
-0.078977 118.460693 1.037826 -0.317014 -0.887367 0.600570 0.600115 0.536155 0.379208 0.948881 0.543752 -0.047614 0.000000 0.000000 0.000000 0.949055 0.535715 -0.042374 1.780576 -1.212659 -0.622516 -4.885157 -7.647346 2.553905 0.000000 0.000001 0.000000 0.692010 -2.516157 -11.214499 0.000000 0.000000 0.000000 5.525723 -17.246018 -62.798870 0.000001 -22.198156 -0.000007 -2.131723 -14.873357 7.452654 -0.830598 2.120671 4.786331 11.978266 25.349212 16.677307 -13.801773 3.030281 9.060985 -0.000000 0.000002 0.000001 -0.041677 -0.942374 -8.576654 0.292464 1.829563 -18.162122 0.064850 0.870200 -8.523699 -0.000002 -0.000001 -0.000001 -0.100876 2.656960 -16.579874 0.299765 1.851704 -18.389866 0.322348 1.918232 -19.076268 -0.000001 -0.000001 0.000000 0.107215 3.614048 -22.172274 0.424996 2.192520 -21.937838 0.298202 1.846983 -18.341295 -0.000001 -0.000000 0.000001 0.949223 5.524165 -28.142778 0.305286 1.868196 -18.559794 0.271611 1.764785 -17.497486 -0.000000 -0.000002 -0.000002 0.449468 7.849633 13.857034 0.000000 0.000000 0.000000 6.043055 9.889811 61.153764 -0.000013 23.361527 0.000012 -0.730126 7.851448 -3.040934 -1.761837 -0.016401 -4.482743 12.764997 -29.795915 -15.566349 -15.349718 -3.115531 -12.805208 -0.000000 -0.000000 0.000003 0.036051 1.449435 7.219406 0.241917 -1.482946 18.529408 0.050870 -0.687175 8.466604 0.000001 0.000001 0.000001 -0.172598 -2.126494 15.595321 0.236555 -1.466874 18.321209 0.246933 -1.497825 18.722404 -0.000000 -0.000000 0.000001 -0.002935 -3.013790 21.023066 0.338700 -1.745229 21.964234 0.230809 -1.449379 18.095068 0.000007 0.000001 0.000002 0.752418 -4.816134 27.028259 0.232546 -1.454702 18.163925 0.200280 -1.352417 16.846479 -0.000000 0.000000 0.000001 -6.871315 13.719741 7.346137 10.344479 -9.719865 0.327297 -4.171746 0.055673 -6.120803 -0.655509 -0.000001 -0.000002 -0.000000 0.000000 -0.000000 -5.769041 -10.153230 -11.870981 8.861485 6.207552 2.442236 -3.897739 -0.393308 7.332968 -0.000076 -0.000003 0.000000 0.000000 -0.000000 -0.000000 
-0.082046 118.451149 1.080740 -0.317015 -0.898749 0.597797 0.601322 0.541378 0.370599 0.952789 0.543752 -0.056660 0.000000 0.000000 0.000000 0.952979 0.540084 -0.051264 1.792710 -1.175588 -0.617547 -4.910366 -7.452485 2.543740 -0.000000 -0.000001 0.000000 0.691128 -2.553943 -11.273604 0.000000 0.000000 0.000000 5.631556 -17.345952 -62.656911 -0.000009 -22.462025 -0.000015 -2.273020 -14.267531 7.402784 -1.025753 2.075849 4.725337 12.125254 25.271049 16.226607 -13.792511 2.420708 9.090430 0.000000 -0.000003 0.000002 -0.116545 -0.912144 -9.746205 0.322959 1.919996 -19.094410 0.073873 0.928439 -9.099099 -0.000000 0.000002 0.000001 -0.130692 2.652283 -17.625332 0.338692 1.964814 -19.558419 0.349197 1.994189 -19.863280 -0.000002 -0.000001 -0.000003 0.066868 3.579865 -23.403078 0.472874 2.307730 -23.157090 0.316586 1.901518 -18.903442 -0.000002 -0.000001 -0.000000 0.945487 5.501406 -29.345153 0.351516 2.000538 -19.929196 0.309040 1.879347 -18.674702 -0.000005 -0.000001 -0.000000 0.446511 7.844590 13.940675 0.000000 0.000000 0.000000 6.222917 9.968886 61.098829 -0.000010 23.471767 0.000030 -0.775151 7.617314 -2.904980 -1.876951 0.163953 -4.797922 12.832643 -29.745781 -14.900261 -15.110605 -2.592539 -12.927066 0.000001 -0.000001 0.000002 0.030677 1.669075 7.683164 0.277390 -1.584795 19.854368 0.056824 -0.726098 8.950172 -0.000002 0.000001 -0.000002 -0.218980 -2.032696 16.303137 0.264136 -1.547645 19.369670 0.255554 -1.522995 19.049078 -0.000003 0.000000 0.000001 -0.045745 -2.938343 21.686621 0.376360 -1.835801 23.169608 0.236785 -1.467541 18.330013 0.000002 -0.000001 -0.000003 0.723232 -4.750157 27.685472 0.254982 -1.521356 19.027688 0.209158 -1.381438 17.219313 0.000002 -0.000001 -0.000000 -6.858023 13.723534 7.353566 10.370095 -9.720286 0.327280 -4.210945 0.061473 -6.112908 -0.662180 -0.000002 -0.000000 0.000000 0.000000 -0.000000 -5.759131 -10.134593 -11.862078 8.892910 6.189186 2.427741 -3.933369 -0.399911 7.342137 -0.000058 -0.000001 -0.000000 0.000000 -0.000000 -0.000000 
